<?xml version="1.0" encoding="UTF-8"?>
<svg id="Layer_2" data-name="Layer 2" xmlns="http://www.w3.org/2000/svg" viewBox="0 0 388.52 324.04">
  <defs>
    <style>
      .cls-1 {
        fill: #231f20;
      }
    </style>
  </defs>
  <g id="Layer_1-2" data-name="Layer 1">
    <g>
      <path class="cls-1" d="M19.76,2.33L181.73,117.31c3.31,2.35,5.27,6.15,5.27,10.2v69.02c0,4.05-1.96,7.86-5.27,10.2L19.76,321.71c-8.29,5.88-19.76-.04-19.76-10.2v-42.1c0-4.13,2.04-8,5.45-10.33l126.93-86.73c7.27-4.97,7.27-15.69,0-20.66L5.45,64.96c-3.41-2.33-5.45-6.2-5.45-10.33V12.53C0,2.37,11.47-3.55,19.76,2.33Z"/>
      <path class="cls-1" d="M383.07,64.96l-126.93,86.73c-7.27,4.97-7.27,15.69,0,20.66l126.93,86.73c3.41,2.33,5.45,6.2,5.45,10.33v42.1c0,10.16-11.47,16.08-19.76,10.2l-161.98-114.98c-3.31-2.35-5.27-6.15-5.27-10.2V127.51c0-4.05,1.96-7.86,5.27-10.2L368.77,2.33c8.29-5.88,19.76,.04,19.76,10.2V54.63c0,4.13-2.04,8-5.45,10.33Z"/>
    </g>
  </g>
</svg>